<svg width="22" height="18" viewBox="0 0 22 18" fill="none" xmlns="http://www.w3.org/2000/svg">
<path d="M22 2.11613C21.1819 2.475 20.3101 2.71288 19.4013 2.82838C20.3363 2.27013 21.0499 1.39287 21.3854 0.3355C20.5136 0.85525 19.5511 1.22238 18.5254 1.42725C17.6976 0.545875 16.5179 0 15.2309 0C12.7339 0 10.7236 2.02675 10.7236 4.51137C10.7236 4.86888 10.7539 5.21263 10.8281 5.53988C7.0785 5.357 3.76062 3.55988 1.53175 0.82225C1.14262 1.49738 0.914375 2.27012 0.914375 3.102C0.914375 4.664 1.71875 6.04862 2.91775 6.85025C2.19312 6.8365 1.48225 6.62613 0.88 6.29475C0.88 6.3085 0.88 6.32638 0.88 6.34425C0.88 8.536 2.44338 10.3565 4.4935 10.7759C4.12638 10.8763 3.72625 10.9244 3.311 10.9244C3.02225 10.9244 2.73075 10.9079 2.45712 10.8474C3.0415 12.6335 4.69975 13.9466 6.6715 13.9893C5.137 15.1896 3.18863 15.9129 1.07938 15.9129C0.7095 15.9129 0.35475 15.8964 0 15.851C1.99787 17.1394 4.36563 17.875 6.919 17.875C15.2185 17.875 19.756 11 19.756 5.04075C19.756 4.84137 19.7491 4.64887 19.7395 4.45775C20.6346 3.8225 21.3867 3.02913 22 2.11613Z" fill="white"/>
</svg>
